# File created by Blade
# Date/Time:  Wed Jan 21 14:43:55 2015
# Frame Rate: 120.000 fps
#------------------------------------------------------
:FULLY-SPECIFIED
:DEGREES
911
root 19.167859 35.612936 -20.927312 -168.291052 -1.329609 181.266755
Spine -23.675689 -2.637494 -2.520729
Head 21.212445 -0.052869 1.768824
LeftShoulder -13.807098 -64.778615 54.375024
LeftArm 51.846661 -27.798866 -13.531074
LeftForeArm -60.901418 0.000000 58.320403
LeftHand 3.321395 0.000000 -23.712027
LeftHandThumb1 -26.253704 0.000000 33.147579
RightShoulder -17.831969 28.878075 -49.246054
RightArm 135.106328 70.397208 101.315001
RightForeArm 41.511315 -0.000000 99.769492
RightHand 10.259036 -0.000000 -3.131231
RightHandThumb1 -24.326973 -0.000000 -32.862282
LeftUpLeg -3.466097 11.710763 1.662985
LeftLeg -7.279080 -0.000000 0.000000
LeftFoot -18.959070 26.587219 -15.092787
LeftToeBase 26.429598 -0.000000 -0.000000
RightUpLeg -4.556652 -10.034314 -0.420211
RightLeg -3.207714 -0.000000 0.000000
RightFoot -19.708304 -20.553174 19.420939
RightToeBase 24.375881 -0.000000 -0.000000
912
root 19.175488 35.613100 -20.940931 -168.318011 -1.252810 181.320908
Spine -23.794871 -2.736635 -2.551891
Head 21.483940 -0.027873 1.863270
LeftShoulder -13.886565 -65.023140 54.778991
LeftArm 52.190115 -27.732932 -13.825509
LeftForeArm -61.611957 0.000000 59.321734
LeftHand 3.381539 -0.000000 -23.920017
LeftHandThumb1 -26.253704 0.000000 33.147579
RightShoulder -17.913705 29.079997 -49.341889
RightArm 135.444462 70.225461 101.546324
RightForeArm 41.804686 -0.000000 100.844979
RightHand 10.196947 -0.000000 -3.209264
RightHandThumb1 -24.326973 -0.000000 -32.862282
LeftUpLeg -3.394354 11.727810 1.733177
LeftLeg -7.295796 -0.000000 0.000000
LeftFoot -19.008797 26.653881 -15.110481
LeftToeBase 26.447210 -0.000000 -0.000000
RightUpLeg -4.528271 -9.983370 -0.376483
RightLeg -3.184279 -0.000000 0.000000
RightFoot -19.704198 -20.470591 19.491076
RightToeBase 24.313451 -0.000000 -0.000000
913
root 19.184164 35.614514 -20.952216 -168.327755 -1.207621 181.364696
Spine -23.940662 -2.833645 -2.610482
Head 21.737903 -0.012668 1.997029
LeftShoulder -13.955770 -65.390304 55.182084
LeftArm 52.465649 -27.549159 -14.075939
LeftForeArm -62.317111 -0.000000 60.346067
LeftHand 3.234171 -0.000000 -24.222510
LeftHandThumb1 -26.253704 0.000000 33.147579
RightShoulder -17.967431 29.177695 -49.361999
RightArm 135.846217 70.022391 101.765451
RightForeArm 42.097117 0.000000 101.890994
RightHand 10.101573 -0.000000 -3.571302
RightHandThumb1 -24.326973 -0.000000 -32.862282
LeftUpLeg -3.363275 11.734766 1.791518
LeftLeg -7.283865 -0.000000 0.000000
LeftFoot -19.039292 26.688384 -15.136355
LeftToeBase 26.396173 -0.000000 -0.000000
RightUpLeg -4.519000 -9.915358 -0.334425
RightLeg -3.157602 -0.000000 0.000000
RightFoot -19.719652 -20.444910 19.579946
RightToeBase 24.309958 -0.000000 -0.000000
914
root 19.191272 35.615260 -20.962319 -168.337156 -1.174071 181.389763
Spine -24.069119 -2.938299 -2.674127
Head 21.973772 -0.044794 2.092864
LeftShoulder -13.994789 -65.705617 55.503403
LeftArm 52.766015 -27.434159 -14.291007
LeftForeArm -62.942794 0.000000 61.312032
LeftHand 3.354691 -0.000000 -24.558146
LeftHandThumb1 -26.253704 0.000000 33.147579
RightShoulder -18.027336 29.386923 -49.473044
RightArm 135.781976 69.898396 101.581440
RightForeArm 42.400590 -0.000000 102.915006
RightHand 9.860468 -0.000000 -3.937707
RightHandThumb1 -24.326973 -0.000000 -32.862282
LeftUpLeg -3.341645 11.756450 1.826083
LeftLeg -7.268606 -0.000000 0.000000
LeftFoot -19.072076 26.715687 -15.138531
LeftToeBase 26.414999 -0.000000 -0.000000
RightUpLeg -4.506343 -9.864886 -0.314201
RightLeg -3.137134 -0.000000 0.000000
RightFoot -19.737104 -20.412416 19.636052
RightToeBase 24.318863 -0.000000 -0.000000
915
root 19.197320 35.616780 -20.971223 -168.348966 -1.169447 181.412533
Spine -24.202776 -3.099610 -2.700809
Head 22.221924 -0.053754 2.117308
LeftShoulder -14.020070 -65.896604 55.718601
LeftArm 53.136504 -27.402977 -14.509043
LeftForeArm -63.738296 -0.000000 62.226379
LeftHand 3.279081 -0.000000 -24.957998
LeftHandThumb1 -26.253704 0.000000 33.147579
RightShoulder -18.010185 29.387078 -49.429465
RightArm 136.199952 69.711086 101.754069
RightForeArm 42.717583 -0.000000 103.854727
RightHand 9.887734 0.000000 -4.305602
RightHandThumb1 -24.326973 -0.000000 -32.862282
LeftUpLeg -3.327119 11.742244 1.861867
LeftLeg -7.247075 -0.000000 0.000000
LeftFoot -19.104953 26.747886 -15.170508
LeftToeBase 26.414276 -0.000000 -0.000000
RightUpLeg -4.491399 -9.814426 -0.294784
RightLeg -3.112015 -0.000000 0.000000
RightFoot -19.759607 -20.410656 19.717935
RightToeBase 24.294173 -0.000000 -0.000000
